<?xml version="1.0" standalone="no"?>
<!DOCTYPE svg PUBLIC "-//W3C//DTD SVG 20010904//EN"
 "http://www.w3.org/TR/2001/REC-SVG-20010904/DTD/svg10.dtd">
<svg version="1.0" xmlns="http://www.w3.org/2000/svg"
 width="1024.000000pt" height="1024.000000pt" viewBox="0 0 1024.000000 1024.000000"
 preserveAspectRatio="xMidYMid meet">
<metadata>
Created by potrace 1.14, written by Peter Selinger 2001-2017
</metadata>
<g transform="translate(0.000000,1024.000000) scale(0.100000,-0.100000)"
fill="#000000" stroke="none">
<path d="M0 5120 l0 -5120 5120 0 5120 0 0 872 0 872 -47 -45 c-303 -287 -732
-580 -1143 -778 -604 -291 -1222 -439 -1900 -457 -787 -21 -1519 140 -2210
485 -1002 502 -1778 1325 -2220 2357 l-19 44 47 0 48 0 28 -67 c51 -120 186
-379 270 -518 356 -592 843 -1097 1426 -1478 316 -206 710 -396 1055 -508 497
-162 930 -230 1458 -230 681 1 1285 132 1908 416 421 191 891 508 1217 819
l82 79 0 3257 0 3258 -86 81 c-243 230 -582 479 -879 645 -541 302 -1094 482
-1725 562 -172 21 -684 30 -876 15 -1340 -107 -2538 -769 -3340 -1846 -192
-258 -392 -602 -510 -877 l-28 -68 -48 0 -48 0 26 58 c14 31 30 67 35 79 4 13
44 94 87 180 326 651 804 1220 1392 1655 1040 771 2343 1073 3630 842 406 -73
864 -226 1233 -410 394 -198 802 -480 1090 -753 l47 -45 0 872 0 872 -5120 0
-5120 0 0 -5120z m2268 1528 c8 -8 12 -47 12 -109 0 -126 -4 -129 -145 -129
-141 0 -145 3 -145 129 0 62 4 101 12 109 8 8 52 12 133 12 81 0 125 -4 133
-12z m540 -30 c9 -9 12 -186 12 -735 0 -838 17 -743 -136 -743 -77 0 -101 4
-116 17 -17 15 -18 51 -18 729 0 634 2 714 16 728 20 20 223 23 242 4z m-1405
-23 c149 -31 253 -109 298 -221 19 -48 23 -78 24 -160 0 -92 -2 -105 -30 -159
-20 -38 -48 -74 -82 -101 l-52 -43 50 -36 c124 -89 177 -255 133 -420 -41
-159 -158 -262 -337 -299 -98 -21 -775 -24 -795 -4 -17 17 -17 1429 0 1446 19
19 701 16 791 -3z m5386 -3 c16 -12 97 -219 276 -702 140 -377 255 -694 255
-705 0 -39 -19 -45 -135 -45 -143 0 -126 -16 -209 203 l-38 97 -308 0 -308 0
-28 -72 c-53 -144 -74 -192 -91 -210 -14 -15 -32 -18 -128 -18 -125 0 -142 8
-132 58 3 15 118 331 256 702 174 468 257 680 272 693 32 26 286 25 318 -1z
m-2994 -372 c158 -61 246 -159 289 -326 21 -82 22 -324 1 -412 -53 -224 -210
-345 -465 -359 -179 -9 -314 32 -413 126 -105 99 -147 223 -147 431 0 156 12
225 55 315 59 123 162 204 302 240 91 23 300 14 378 -15z m4496 -8 c110 -53
183 -148 220 -288 29 -106 31 -365 5 -464 -26 -95 -72 -174 -137 -235 -71 -65
-143 -94 -254 -102 -129 -9 -226 23 -317 105 l-38 34 0 -245 c0 -296 10 -277
-142 -277 -154 0 -138 -87 -138 747 0 643 1 708 17 725 14 15 32 18 119 18
121 0 134 -7 134 -77 l0 -45 48 42 c93 83 150 101 302 97 105 -3 121 -6 181
-35z m1281 0 c113 -55 189 -159 224 -308 22 -95 21 -359 -1 -446 -24 -92 -71
-172 -136 -233 -71 -65 -143 -94 -254 -102 -129 -9 -226 23 -317 105 l-38 34
0 -245 c0 -296 10 -277 -142 -277 -154 0 -138 -87 -138 747 0 643 1 708 17
725 14 15 32 18 119 18 121 0 134 -7 134 -77 l0 -45 48 42 c93 83 150 101 302
97 106 -3 120 -6 182 -35z m-7314 6 c9 -9 12 -140 12 -529 0 -457 -2 -519 -16
-533 -22 -23 -216 -23 -238 0 -14 14 -16 76 -16 533 0 389 3 520 12 529 8 8
50 12 123 12 73 0 115 -4 123 -12z m2244 -5 c9 -10 59 -169 113 -353 54 -184
101 -338 104 -342 4 -5 54 143 111 328 58 185 113 347 123 360 17 22 26 24
102 24 77 0 86 -2 99 -22 8 -13 53 -147 101 -298 116 -370 126 -402 131 -397
2 2 49 159 105 348 56 189 106 350 111 357 7 8 43 12 112 12 105 0 126 -7 126
-42 0 -16 -222 -753 -286 -951 -15 -46 -33 -81 -44 -87 -10 -6 -59 -10 -108
-10 -77 0 -91 3 -108 21 -10 11 -69 172 -130 357 l-111 337 -112 -342 c-85
-261 -117 -346 -134 -358 -33 -23 -187 -21 -217 3 -32 26 -335 1017 -321 1050
10 21 16 22 114 22 86 0 106 -3 119 -17z m4315 -2013 c-59 -65 -89 -143 -95
-241 -6 -120 26 -213 107 -302 l34 -38 -23 -24 -24 -25 -33 32 c-144 139 -177
369 -82 559 9 19 39 59 65 88 l47 52 25 -25 25 -25 -46 -51z m448 17 c56 -74
86 -153 92 -247 10 -133 -35 -263 -122 -354 l-47 -48 -24 24 -25 24 41 44
c143 155 143 395 0 550 l-40 44 21 22 c27 29 45 19 104 -59z m-3962 -7 c30
-24 37 -25 37 -5 0 11 11 15 35 15 l36 0 -3 -77 -3 -78 -33 -3 c-29 -3 -33 0
-38 28 -10 45 -50 73 -97 67 -48 -7 -67 -22 -67 -57 0 -36 20 -52 111 -89 102
-42 139 -84 139 -156 0 -51 -36 -111 -78 -131 -43 -20 -133 -15 -160 9 -23 21
-32 21 -32 2 0 -10 -11 -15 -35 -15 l-35 0 0 81 0 80 38 -3 c29 -2 38 -7 40
-25 9 -61 118 -97 162 -53 46 46 9 113 -77 140 -69 23 -114 50 -133 83 -41 66
-14 163 53 192 48 21 110 19 140 -5z m-4633 -74 l0 -85 45 20 c57 25 104 18
153 -25 44 -39 62 -81 62 -149 0 -84 -32 -142 -97 -176 -32 -17 -105 -13 -133
6 -17 12 -25 13 -28 5 -2 -7 -21 -12 -43 -12 l-39 0 0 250 0 250 40 0 40 0 0
-84z m630 33 l0 -50 -47 3 -48 3 -3 48 -3 47 50 0 51 0 0 -51z m490 -163 l0
-215 43 -3 c39 -3 42 -5 45 -35 l3 -33 -125 0 -126 0 0 35 c0 34 1 35 40 35
l40 0 0 180 0 180 -40 0 c-39 0 -40 1 -40 35 l0 35 80 0 80 0 0 -214z m1430
179 c0 -24 -5 -35 -15 -35 -19 0 -20 4 16 -76 l32 -69 28 60 c32 70 35 85 14
85 -10 0 -15 11 -15 35 l0 35 80 0 80 0 0 -35 c0 -27 -4 -35 -18 -35 -12 0
-34 -33 -75 -115 -52 -105 -57 -121 -57 -180 l0 -65 40 0 c39 0 40 -1 40 -35
l0 -35 -120 0 -120 0 0 35 c0 34 1 35 40 35 l40 0 0 70 c0 65 -4 78 -55 180
-42 85 -60 110 -75 110 -16 0 -20 7 -20 35 l0 35 80 0 80 0 0 -35z m2510 -35
l0 -69 78 -3 77 -3 3 -32 3 -32 -78 -3 -78 -3 -3 -65 c-6 -115 13 -160 65
-160 29 0 63 25 63 47 0 13 36 18 63 7 29 -11 -7 -85 -54 -110 -41 -21 -115
-18 -154 6 -47 29 -65 82 -65 190 l0 90 -40 0 c-39 0 -40 1 -40 35 0 34 1 35
40 35 l40 0 0 70 0 70 40 0 40 0 0 -70z m1500 0 l0 -69 78 -3 77 -3 3 -32 3
-32 -78 -3 -78 -3 -3 -65 c-6 -115 13 -160 65 -160 29 0 63 25 63 47 0 13 36
18 63 7 29 -11 -7 -85 -54 -110 -41 -21 -115 -18 -154 6 -47 29 -65 82 -65
190 l0 90 -40 0 c-39 0 -40 1 -40 35 0 34 1 35 40 35 l40 0 0 70 0 70 40 0 40
0 0 -70z m-4931 -71 c90 -20 140 -86 141 -185 0 -110 -76 -184 -189 -184 -93
0 -162 52 -182 136 -24 105 35 211 132 234 46 11 48 11 98 -1z m1500 0 c90
-20 140 -86 141 -185 0 -110 -76 -184 -189 -184 -93 0 -162 52 -182 136 -24
105 35 211 132 234 46 11 48 11 98 -1z m1145 -9 c5 -5 4 -21 -4 -39 -11 -29
-14 -30 -72 -29 -97 1 -136 -44 -137 -159 l-1 -53 40 0 c39 0 40 -1 40 -35 l0
-35 -120 0 -120 0 0 35 c0 34 1 35 40 35 l40 0 0 110 0 110 -40 0 c-39 0 -40
1 -40 35 l0 35 80 0 80 0 0 -42 0 -41 33 36 c17 20 48 41 67 46 37 10 99 5
114 -9z m1408 -6 c53 -27 58 -46 58 -201 l0 -143 -40 0 c-34 0 -40 3 -40 20 0
20 -1 20 -30 -2 -22 -16 -48 -23 -95 -26 -63 -4 -66 -3 -100 31 -90 90 -5 199
156 201 64 1 69 3 69 23 0 12 -9 27 -19 33 -29 15 -106 12 -148 -5 -45 -19
-40 -20 -58 15 -15 29 -15 30 16 45 68 36 172 39 231 9z m592 6 c5 -5 4 -21
-4 -39 -11 -29 -14 -30 -72 -29 -97 1 -136 -44 -137 -159 l-1 -53 40 0 c39 0
40 -1 40 -35 l0 -35 -120 0 -120 0 0 35 c0 34 1 35 40 35 l40 0 0 110 0 110
-40 0 c-39 0 -40 1 -40 35 l0 35 80 0 80 0 0 -42 0 -41 33 36 c17 20 48 41 67
46 37 10 99 5 114 -9z m1366 10 c41 -11 94 -61 109 -103 31 -82 -2 -201 -68
-244 -40 -27 -117 -31 -147 -8 -10 8 -22 15 -26 15 -5 0 -8 -38 -8 -85 l0 -85
-40 0 -40 0 0 255 0 255 40 0 c30 0 40 -4 40 -16 0 -15 2 -15 23 -1 21 14 47
23 72 26 6 0 26 -4 45 -9z m-7020 -144 l0 -145 43 -3 c39 -3 42 -5 45 -35 l3
-33 -125 0 -126 0 0 35 c0 34 1 35 40 35 l40 0 0 110 0 110 -40 0 c-39 0 -40
1 -40 35 l0 35 80 0 80 0 0 -144z m1350 135 c0 -19 21 -167 27 -191 4 -18 9
-4 19 55 26 159 20 146 67 143 40 -3 42 -4 48 -43 4 -22 13 -74 20 -115 l13
-75 15 115 16 115 38 3 c45 4 44 12 17 -169 -31 -207 -24 -189 -80 -189 l-48
0 -11 48 c-5 26 -13 72 -17 101 -9 66 -15 52 -34 -66 l-14 -83 -53 0 c-36 0
-53 4 -53 13 0 6 -11 84 -25 172 -13 88 -25 163 -25 168 0 4 18 7 40 7 22 0
40 -4 40 -9z m1530 -119 c0 -99 3 -132 16 -150 16 -24 49 -28 87 -11 42 19 52
47 57 169 l5 115 38 3 37 3 0 -180 0 -181 -40 0 c-37 0 -40 2 -40 29 l0 29
-34 -34 c-29 -29 -41 -34 -83 -34 -101 0 -123 43 -123 235 l0 135 40 0 40 0 0
-128z m3500 0 c0 -99 3 -132 16 -150 27 -39 97 -23 127 28 13 22 17 53 17 139
l0 111 40 0 40 0 0 -180 0 -180 -40 0 c-37 0 -40 2 -40 29 l0 29 -34 -34 c-29
-29 -41 -34 -83 -34 -101 0 -123 43 -123 235 l0 135 40 0 40 0 0 -128z m2130
78 l0 -50 -50 0 -50 0 0 50 0 50 50 0 50 0 0 -50z m-33 -350 c-50 -106 -53
-110 -83 -110 l-32 0 36 110 36 110 47 0 47 0 -51 -110z"/>
<path d="M880 6200 l0 -190 194 0 c199 0 236 6 290 43 85 60 85 234 0 294 -50
35 -102 43 -296 43 l-188 0 0 -190z"/>
<path d="M882 5578 l3 -213 200 0 c227 0 271 9 324 70 98 112 44 305 -96 344
-21 6 -127 11 -236 11 l-197 0 2 -212z"/>
<path d="M6515 6014 c-60 -168 -111 -312 -113 -320 -3 -12 31 -14 227 -14 127
0 231 4 231 9 0 13 -221 615 -229 623 -3 3 -55 -131 -116 -298z"/>
<path d="M3533 6039 c-85 -16 -135 -60 -170 -150 -25 -65 -24 -334 1 -403 26
-71 53 -103 113 -133 47 -22 62 -25 124 -21 154 11 219 116 219 353 0 153 -27
251 -82 301 -52 48 -126 67 -205 53z"/>
<path d="M7931 6016 c-56 -19 -103 -65 -133 -130 -21 -46 -23 -65 -23 -206 0
-153 0 -156 30 -209 49 -89 108 -122 213 -122 116 0 182 52 218 171 25 84 16
308 -14 375 -26 57 -55 91 -95 111 -41 22 -144 27 -196 10z"/>
<path d="M9217 6017 c-58 -19 -107 -64 -135 -126 -23 -49 -27 -72 -30 -186 -5
-148 4 -192 51 -261 44 -66 103 -95 191 -95 121 0 186 50 222 171 25 84 16
308 -14 375 -26 57 -55 91 -95 111 -38 20 -144 26 -190 11z"/>
<path d="M693 3998 c-21 -10 -23 -18 -23 -98 0 -91 4 -101 48 -115 74 -22 132
30 132 118 0 40 -5 54 -29 78 -32 31 -84 38 -128 17z"/>
<path d="M2187 3990 c-36 -29 -52 -83 -38 -130 15 -50 41 -71 95 -77 42 -5 48
-3 81 30 29 29 35 42 35 76 0 48 -21 96 -49 111 -33 17 -96 12 -124 -10z"/>
<path d="M3687 3990 c-36 -29 -52 -83 -38 -130 15 -50 41 -71 95 -77 42 -5 48
-3 81 30 29 29 35 42 35 76 0 48 -21 96 -49 111 -33 17 -96 12 -124 -10z"/>
<path d="M6207 3870 c-83 -25 -74 -90 13 -90 67 0 128 52 105 89 -7 13 -78 13
-118 1z"/>
<path d="M8193 3998 c-21 -10 -23 -18 -23 -98 0 -97 5 -107 63 -117 45 -7 91
17 107 57 20 47 8 120 -25 147 -29 25 -83 30 -122 11z"/>
</g>
</svg>
